<svg width="146" height="47" viewBox="0 0 146 47" fill="none" xmlns="http://www.w3.org/2000/svg">
<rect x="1.5" y="2.5" width="38" height="38" stroke="white" stroke-width="3"/>
<path d="M50.68 20V2.72H53.284L59.26 14.96L65.236 2.72H67.84V20H65.14V8.924L59.836 20H58.684L53.392 8.924V20H50.68ZM76.3833 20.36C75.0713 20.36 73.9193 20.076 72.9273 19.508C71.9353 18.94 71.1593 18.152 70.5993 17.144C70.0473 16.136 69.7713 14.976 69.7713 13.664C69.7713 12.248 70.0433 11.02 70.5873 9.98C71.1313 8.932 71.8873 8.12 72.8553 7.544C73.8233 6.968 74.9433 6.68 76.2153 6.68C77.5593 6.68 78.6993 6.996 79.6353 7.628C80.5793 8.252 81.2793 9.136 81.7353 10.28C82.1913 11.424 82.3633 12.772 82.2513 14.324H79.3833V13.268C79.3753 11.86 79.1273 10.832 78.6393 10.184C78.1513 9.536 77.3833 9.212 76.3353 9.212C75.1513 9.212 74.2713 9.58 73.6953 10.316C73.1193 11.044 72.8313 12.112 72.8313 13.52C72.8313 14.832 73.1193 15.848 73.6953 16.568C74.2713 17.288 75.1113 17.648 76.2153 17.648C76.9273 17.648 77.5393 17.492 78.0513 17.18C78.5713 16.86 78.9713 16.4 79.2513 15.8L82.1073 16.664C81.6113 17.832 80.8433 18.74 79.8033 19.388C78.7713 20.036 77.6313 20.36 76.3833 20.36ZM71.9193 14.324V12.14H80.8353V14.324H71.9193ZM89.4048 20.36C88.2128 20.36 87.1728 20.06 86.2848 19.46C85.3968 18.86 84.7088 18.044 84.2208 17.012C83.7328 15.98 83.4888 14.816 83.4888 13.52C83.4888 12.208 83.7328 11.04 84.2208 10.016C84.7168 8.984 85.4168 8.172 86.3208 7.58C87.2248 6.98 88.2888 6.68 89.5128 6.68C90.7448 6.68 91.7768 6.98 92.6088 7.58C93.4488 8.172 94.0848 8.984 94.5168 10.016C94.9488 11.048 95.1648 12.216 95.1648 13.52C95.1648 14.808 94.9488 15.972 94.5168 17.012C94.0848 18.044 93.4408 18.86 92.5848 19.46C91.7288 20.06 90.6688 20.36 89.4048 20.36ZM89.8488 17.768C90.6248 17.768 91.2488 17.592 91.7208 17.24C92.2008 16.88 92.5488 16.38 92.7648 15.74C92.9888 15.1 93.1008 14.36 93.1008 13.52C93.1008 12.672 92.9888 11.932 92.7648 11.3C92.5488 10.66 92.2088 10.164 91.7448 9.812C91.2808 9.452 90.6808 9.272 89.9448 9.272C89.1688 9.272 88.5288 9.464 88.0248 9.848C87.5208 10.224 87.1488 10.736 86.9088 11.384C86.6688 12.024 86.5488 12.736 86.5488 13.52C86.5488 14.312 86.6648 15.032 86.8968 15.68C87.1368 16.32 87.5008 16.828 87.9888 17.204C88.4768 17.58 89.0968 17.768 89.8488 17.768ZM93.1008 20V10.904H92.7408V2.72H95.6568V20H93.1008ZM98.5413 20V2.36H101.433V20H98.5413ZM110.032 20.36C108.736 20.36 107.604 20.068 106.636 19.484C105.668 18.9 104.916 18.096 104.38 17.072C103.852 16.04 103.588 14.856 103.588 13.52C103.588 12.16 103.86 10.968 104.404 9.944C104.948 8.92 105.704 8.12 106.672 7.544C107.64 6.968 108.76 6.68 110.032 6.68C111.336 6.68 112.472 6.972 113.44 7.556C114.408 8.14 115.16 8.948 115.696 9.98C116.232 11.004 116.5 12.184 116.5 13.52C116.5 14.864 116.228 16.052 115.684 17.084C115.148 18.108 114.396 18.912 113.428 19.496C112.46 20.072 111.328 20.36 110.032 20.36ZM110.032 17.648C111.184 17.648 112.04 17.264 112.6 16.496C113.16 15.728 113.44 14.736 113.44 13.52C113.44 12.264 113.156 11.264 112.588 10.52C112.02 9.768 111.168 9.392 110.032 9.392C109.256 9.392 108.616 9.568 108.112 9.92C107.616 10.264 107.248 10.748 107.008 11.372C106.768 11.988 106.648 12.704 106.648 13.52C106.648 14.776 106.932 15.78 107.5 16.532C108.076 17.276 108.92 17.648 110.032 17.648ZM124.052 20.36C122.716 20.36 121.576 20.064 120.632 19.472C119.688 18.872 118.964 18.056 118.46 17.024C117.964 15.992 117.712 14.824 117.704 13.52C117.712 12.192 117.972 11.016 118.484 9.992C119.004 8.96 119.74 8.152 120.692 7.568C121.644 6.976 122.776 6.68 124.088 6.68C125.56 6.68 126.804 7.052 127.82 7.796C128.844 8.532 129.512 9.54 129.824 10.82L126.944 11.6C126.72 10.904 126.348 10.364 125.828 9.98C125.308 9.588 124.716 9.392 124.052 9.392C123.3 9.392 122.68 9.572 122.192 9.932C121.704 10.284 121.344 10.772 121.112 11.396C120.88 12.02 120.764 12.728 120.764 13.52C120.764 14.752 121.04 15.748 121.592 16.508C122.144 17.268 122.964 17.648 124.052 17.648C124.82 17.648 125.424 17.472 125.864 17.12C126.312 16.768 126.648 16.26 126.872 15.596L129.824 16.256C129.424 17.576 128.724 18.592 127.724 19.304C126.724 20.008 125.5 20.36 124.052 20.36ZM131.484 20L131.508 2.72H134.436V13.28L139.176 7.04H142.788L137.76 13.52L143.22 20H139.392L134.436 13.76V20H131.484ZM56.68 41.36C55.472 41.36 54.384 41.16 53.416 40.76C52.456 40.352 51.66 39.776 51.028 39.032C50.404 38.288 49.996 37.404 49.804 36.38L51.604 36.08C51.892 37.2 52.5 38.08 53.428 38.72C54.356 39.352 55.464 39.668 56.752 39.668C57.6 39.668 58.36 39.536 59.032 39.272C59.704 39 60.232 38.616 60.616 38.12C61 37.624 61.192 37.036 61.192 36.356C61.192 35.908 61.112 35.528 60.952 35.216C60.792 34.896 60.58 34.632 60.316 34.424C60.052 34.216 59.764 34.044 59.452 33.908C59.14 33.764 58.836 33.648 58.54 33.56L54.16 32.252C53.632 32.1 53.144 31.908 52.696 31.676C52.248 31.436 51.856 31.152 51.52 30.824C51.192 30.488 50.936 30.096 50.752 29.648C50.568 29.2 50.476 28.688 50.476 28.112C50.476 27.136 50.732 26.292 51.244 25.58C51.756 24.868 52.456 24.32 53.344 23.936C54.232 23.552 55.244 23.364 56.38 23.372C57.532 23.372 58.56 23.576 59.464 23.984C60.376 24.392 61.128 24.976 61.72 25.736C62.312 26.488 62.704 27.38 62.896 28.412L61.048 28.748C60.928 27.996 60.652 27.344 60.22 26.792C59.788 26.24 59.236 25.816 58.564 25.52C57.9 25.216 57.168 25.06 56.368 25.052C55.592 25.052 54.9 25.184 54.292 25.448C53.692 25.704 53.216 26.056 52.864 26.504C52.512 26.952 52.336 27.464 52.336 28.04C52.336 28.624 52.496 29.092 52.816 29.444C53.144 29.796 53.544 30.072 54.016 30.272C54.496 30.472 54.96 30.636 55.408 30.764L58.792 31.76C59.144 31.856 59.556 31.996 60.028 32.18C60.508 32.356 60.972 32.612 61.42 32.948C61.876 33.276 62.252 33.708 62.548 34.244C62.844 34.78 62.992 35.46 62.992 36.284C62.992 37.084 62.832 37.8 62.512 38.432C62.2 39.064 61.756 39.596 61.18 40.028C60.612 40.46 59.944 40.788 59.176 41.012C58.416 41.244 57.584 41.36 56.68 41.36ZM69.7771 41.36C68.5691 41.36 67.5371 41.06 66.6811 40.46C65.8251 39.852 65.1691 39.032 64.7131 38C64.2571 36.968 64.0291 35.804 64.0291 34.508C64.0291 33.22 64.2531 32.06 64.7011 31.028C65.1571 29.996 65.8091 29.18 66.6571 28.58C67.5051 27.98 68.5211 27.68 69.7051 27.68C70.9211 27.68 71.9451 27.976 72.7771 28.568C73.6091 29.16 74.2371 29.972 74.6611 31.004C75.0931 32.028 75.3091 33.196 75.3091 34.508C75.3091 35.796 75.0971 36.96 74.6731 38C74.2491 39.032 73.6251 39.852 72.8011 40.46C71.9771 41.06 70.9691 41.36 69.7771 41.36ZM69.9571 39.716C70.8771 39.716 71.6371 39.492 72.2371 39.044C72.8371 38.596 73.2851 37.98 73.5811 37.196C73.8771 36.404 74.0251 35.508 74.0251 34.508C74.0251 33.492 73.8771 32.596 73.5811 31.82C73.2851 31.036 72.8371 30.424 72.2371 29.984C71.6451 29.544 70.8971 29.324 69.9931 29.324C69.0651 29.324 68.2971 29.552 67.6891 30.008C67.0811 30.464 66.6291 31.084 66.3331 31.868C66.0451 32.652 65.9011 33.532 65.9011 34.508C65.9011 35.492 66.0491 36.38 66.3451 37.172C66.6491 37.956 67.1011 38.576 67.7011 39.032C68.3011 39.488 69.0531 39.716 69.9571 39.716ZM73.8331 46.76V37.796H74.0251V28.04H75.6091V46.76H73.8331ZM83.2116 41.324C82.4356 41.324 81.7556 41.204 81.1716 40.964C80.5956 40.724 80.1036 40.4 79.6956 39.992C79.2956 39.584 78.9716 39.12 78.7236 38.6C78.4756 38.072 78.2956 37.516 78.1836 36.932C78.0716 36.34 78.0156 35.752 78.0156 35.168V28.04H79.7916V34.652C79.7916 35.364 79.8596 36.024 79.9956 36.632C80.1316 37.24 80.3476 37.772 80.6436 38.228C80.9476 38.676 81.3356 39.024 81.8076 39.272C82.2876 39.52 82.8676 39.644 83.5476 39.644C84.1716 39.644 84.7196 39.536 85.1916 39.32C85.6716 39.104 86.0716 38.796 86.3916 38.396C86.7196 37.988 86.9676 37.496 87.1356 36.92C87.3036 36.336 87.3876 35.68 87.3876 34.952L88.6356 35.228C88.6356 36.556 88.4036 37.672 87.9396 38.576C87.4756 39.48 86.8356 40.164 86.0196 40.628C85.2036 41.092 84.2676 41.324 83.2116 41.324ZM87.5676 41V37.808H87.3876V28.04H89.1516V41H87.5676ZM95.4936 41.36C94.5176 41.36 93.6976 41.184 93.0336 40.832C92.3776 40.48 91.8856 40.012 91.5576 39.428C91.2296 38.844 91.0656 38.208 91.0656 37.52C91.0656 36.816 91.2056 36.216 91.4856 35.72C91.7736 35.216 92.1616 34.804 92.6496 34.484C93.1456 34.164 93.7176 33.92 94.3656 33.752C95.0216 33.592 95.7456 33.452 96.5376 33.332C97.3376 33.204 98.1176 33.096 98.8776 33.008C99.6456 32.912 100.318 32.82 100.894 32.732L100.27 33.116C100.294 31.836 100.046 30.888 99.5256 30.272C99.0056 29.656 98.1016 29.348 96.8136 29.348C95.9256 29.348 95.1736 29.548 94.5576 29.948C93.9496 30.348 93.5216 30.98 93.2736 31.844L91.5576 31.34C91.8536 30.18 92.4496 29.28 93.3456 28.64C94.2416 28 95.4056 27.68 96.8376 27.68C98.0216 27.68 99.0256 27.904 99.8496 28.352C100.682 28.792 101.27 29.432 101.614 30.272C101.774 30.648 101.878 31.068 101.926 31.532C101.974 31.996 101.998 32.468 101.998 32.948V41H100.426V37.748L100.882 37.94C100.442 39.052 99.7576 39.9 98.8296 40.484C97.9016 41.068 96.7896 41.36 95.4936 41.36ZM95.6976 39.836C96.5216 39.836 97.2416 39.688 97.8576 39.392C98.4736 39.096 98.9696 38.692 99.3456 38.18C99.7216 37.66 99.9656 37.076 100.078 36.428C100.174 36.012 100.226 35.556 100.234 35.06C100.242 34.556 100.246 34.18 100.246 33.932L100.918 34.28C100.318 34.36 99.6656 34.44 98.9616 34.52C98.2656 34.6 97.5776 34.692 96.8976 34.796C96.2256 34.9 95.6176 35.024 95.0736 35.168C94.7056 35.272 94.3496 35.42 94.0056 35.612C93.6616 35.796 93.3776 36.044 93.1536 36.356C92.9376 36.668 92.8296 37.056 92.8296 37.52C92.8296 37.896 92.9216 38.26 93.1056 38.612C93.2976 38.964 93.6016 39.256 94.0176 39.488C94.4416 39.72 95.0016 39.836 95.6976 39.836ZM104.402 41V28.04H105.986V31.16L105.674 30.752C105.818 30.368 106.006 30.016 106.238 29.696C106.47 29.368 106.722 29.1 106.994 28.892C107.33 28.596 107.722 28.372 108.17 28.22C108.618 28.06 109.07 27.968 109.526 27.944C109.982 27.912 110.398 27.944 110.774 28.04V29.696C110.302 29.576 109.786 29.548 109.226 29.612C108.666 29.676 108.15 29.9 107.678 30.284C107.246 30.62 106.922 31.024 106.706 31.496C106.49 31.96 106.346 32.456 106.274 32.984C106.202 33.504 106.166 34.02 106.166 34.532V41H104.402ZM117.58 41.36C116.316 41.36 115.22 41.08 114.292 40.52C113.372 39.96 112.656 39.172 112.144 38.156C111.632 37.14 111.376 35.948 111.376 34.58C111.376 33.164 111.628 31.94 112.132 30.908C112.636 29.876 113.344 29.08 114.256 28.52C115.176 27.96 116.26 27.68 117.508 27.68C118.788 27.68 119.88 27.976 120.784 28.568C121.688 29.152 122.372 29.992 122.836 31.088C123.3 32.184 123.512 33.492 123.472 35.012H121.672V34.388C121.64 32.708 121.276 31.44 120.58 30.584C119.892 29.728 118.884 29.3 117.556 29.3C116.164 29.3 115.096 29.752 114.352 30.656C113.616 31.56 113.248 32.848 113.248 34.52C113.248 36.152 113.616 37.42 114.352 38.324C115.096 39.22 116.148 39.668 117.508 39.668C118.436 39.668 119.244 39.456 119.932 39.032C120.628 38.6 121.176 37.98 121.576 37.172L123.22 37.808C122.708 38.936 121.952 39.812 120.952 40.436C119.96 41.052 118.836 41.36 117.58 41.36ZM112.624 35.012V33.536H122.524V35.012H112.624Z" fill="white"/>
</svg>
