<svg width="743" height="746" viewBox="0 0 743 746" fill="none" xmlns="http://www.w3.org/2000/svg">
<path d="M31.3478 205.871H0.891844V2.55742H59.2444L74.6004 147.051H77.1597L92.5157 2.55742H148.565V205.871H116.061L118.365 57.7974H115.806L95.8428 205.871H52.3343L32.1156 57.7974H29.5563L31.3478 205.871Z" fill="black"/>
<path d="M199.679 115.595V178.507H240.373V205.871H163.849V2.55742H239.093V29.9217H199.679V88.4863H228.6V115.595H199.679Z" fill="black"/>
<path d="M299.721 205.871H252.885V2.55742H299.721C329.153 2.55742 346.557 26.0856 346.557 66.2368V142.448C346.557 182.343 329.153 205.871 299.721 205.871ZM288.716 29.9217V178.507H299.721C306.887 178.507 310.726 173.392 310.726 163.93V44.7546C310.726 35.0365 306.887 29.9217 299.721 29.9217H288.716Z" fill="black"/>
<path d="M398.497 2.55742V178.507H435.607V205.871H362.666V2.55742H398.497Z" fill="black"/>
<path d="M476.762 208.429C447.33 208.429 429.927 184.133 429.927 142.448V66.2368C429.927 24.5511 447.33 0 476.762 0C505.939 0 523.598 24.5511 523.598 66.2368V142.448C523.598 184.133 505.939 208.429 476.762 208.429ZM476.762 178.763C483.928 178.763 487.767 173.392 487.767 163.418V45.2661C487.767 35.0365 483.928 29.6659 476.762 29.6659C469.34 29.6659 465.757 35.0365 465.757 45.2661V163.418C465.757 173.392 469.34 178.763 476.762 178.763Z" fill="black"/>
<path d="M581.978 208.429C552.802 208.429 535.399 183.878 535.399 142.448V66.2368C535.399 24.5511 552.802 0 581.978 0C610.387 0 628.558 22.7609 628.558 57.5417V92.0666L592.728 93.8568V45.2661C592.728 35.0365 589.145 29.6659 581.978 29.6659C575.068 29.6659 571.229 35.0365 571.229 45.2661V163.418C571.229 173.392 574.812 178.763 581.978 178.763C589.145 178.763 592.728 173.392 592.728 163.418V112.526L628.558 114.572V149.864C628.558 185.156 610.387 208.429 581.978 208.429Z" fill="black"/>
<path d="M680.552 205.871H644.722V2.55742H680.552V88.742H683.112L704.098 2.55742H740.953L715.359 100.506L743 205.871H705.378L683.112 116.106H680.552V205.871Z" fill="black"/>
<path d="M711.652 540.129H742.108V743.443H683.756L668.4 598.949H665.84L650.484 743.443H594.435V540.129H626.939L624.635 688.203H627.194L647.157 540.129H690.666L710.884 688.203H713.444L711.652 540.129Z" fill="black"/>
<path d="M543.321 630.405V567.493H502.627V540.129H579.151V743.443H503.907V716.078H543.321V657.514H514.4V630.405H543.321Z" fill="black"/>
<path d="M445.838 540.129H492.674V743.443H445.838C416.406 743.443 399.003 719.914 399.003 679.763V603.552C399.003 563.657 416.406 540.129 445.838 540.129ZM456.843 716.078V567.493H445.838C438.672 567.493 434.833 572.608 434.833 582.07V701.245C434.833 710.964 438.672 716.078 445.838 716.078H456.843Z" fill="black"/>
<path d="M349.622 743.443V567.493H312.512V540.129H385.452V743.443H349.622Z" fill="black"/>
<path d="M263.678 537.571C293.111 537.571 310.514 561.867 310.514 603.552V679.763C310.514 721.449 293.111 746 263.678 746C234.502 746 216.843 721.449 216.843 679.763V603.552C216.843 561.867 234.502 537.571 263.678 537.571ZM263.678 567.237C256.512 567.237 252.673 572.608 252.673 582.582V700.734C252.673 710.964 256.512 716.334 263.678 716.334C271.1 716.334 274.684 710.964 274.684 700.734V582.582C274.684 572.608 271.1 567.237 263.678 567.237Z" fill="black"/>
<path d="M158.462 537.571C187.638 537.571 205.042 562.122 205.042 603.552V679.763C205.042 721.449 187.638 746 158.462 746C130.054 746 111.882 723.239 111.882 688.458V653.933L147.713 652.143V700.734C147.713 710.964 151.296 716.334 158.462 716.334C165.372 716.334 169.211 710.964 169.211 700.734V582.582C169.211 572.608 165.628 567.237 158.462 567.237C151.296 567.237 147.713 572.608 147.713 582.582V633.474L111.882 631.428V596.136C111.882 560.844 130.054 537.571 158.462 537.571Z" fill="black"/>
<path d="M62.4475 540.129H98.2781V743.443H62.4475V657.258H59.8882L38.9017 743.443H2.04746L27.6407 645.494L0 540.129H37.6221L59.8882 629.894H62.4475V540.129Z" fill="black"/>
<path d="M587.381 477.629C559.485 477.629 541.569 456.914 541.569 424.691V404.487L575.864 402.442V434.153C575.864 443.872 579.959 449.242 587.381 449.242C594.547 449.242 598.386 443.872 598.386 434.153V420.599C598.386 380.192 545.664 384.54 545.664 331.09V320.86C545.664 289.404 562.812 269.201 588.917 269.201C615.534 269.201 632.681 289.404 632.681 320.86V340.041L599.41 342.087V312.165C599.41 302.447 595.827 297.588 589.429 297.588C583.286 297.588 580.215 302.447 580.215 312.165V325.208C580.215 361.267 634.217 364.848 634.217 412.671V424.691C634.217 456.914 615.79 477.629 587.381 477.629Z" fill="black"/>
<path d="M737.286 335.438V411.648C737.286 442.849 726.792 463.819 708.365 471.747V473.026C708.365 477.885 710.669 479.675 715.531 479.675H725.513V507.039H708.365C682.516 507.039 672.791 498.344 672.791 475.583V472.003C654.108 464.075 643.614 442.849 643.614 411.648V335.438C643.614 293.752 661.018 269.201 690.45 269.201C719.626 269.201 737.286 293.752 737.286 335.438ZM679.445 314.467V432.619C679.445 442.593 683.028 447.963 690.45 447.963C697.616 447.963 701.455 442.593 701.455 432.619V314.467C701.455 304.237 697.616 298.867 690.45 298.867C683.028 298.867 679.445 304.237 679.445 314.467Z" fill="black"/>
<path d="M155.619 270.614C183.515 270.614 201.431 291.329 201.431 323.552V343.756L167.136 345.802V314.09C167.136 304.372 163.041 299.001 155.619 299.001C148.453 299.001 144.614 304.372 144.614 314.09V327.644C144.614 368.051 197.336 363.704 197.336 417.153V427.383C197.336 458.839 180.188 479.043 154.083 479.043C127.466 479.043 110.319 458.839 110.319 427.383V408.202L143.59 406.157V436.078C143.59 445.796 147.173 450.655 153.571 450.655C159.714 450.655 162.785 445.796 162.785 436.078V423.035C162.785 386.976 108.783 383.396 108.783 335.572V323.552C108.783 291.329 127.21 270.614 155.619 270.614Z" fill="black"/>
<path d="M5.71429 412.806L5.7143 336.595C5.7143 305.395 16.2075 284.424 34.6347 276.496V275.217C34.6347 270.358 32.3313 268.568 27.4686 268.568H17.4872L17.4872 241.204L34.6347 241.204C60.4839 241.204 70.2093 249.899 70.2093 272.66V276.24C88.8924 284.168 99.3856 305.395 99.3856 336.595L99.3856 412.806C99.3856 454.492 81.9822 479.043 52.5499 479.043C23.3736 479.043 5.71428 454.492 5.71429 412.806ZM63.555 433.777L63.555 315.624C63.555 305.65 59.972 300.28 52.5499 300.28C45.3838 300.28 41.5448 305.65 41.5448 315.624L41.5448 433.777C41.5448 444.006 45.3838 449.377 52.5499 449.377C59.972 449.377 63.555 444.006 63.555 433.777Z" fill="black"/>
</svg>
