<svg preserveAspectRatio="none" width="100%" height="100%" overflow="visible" style="display: block;" viewBox="0 0 693 696" fill="none" xmlns="http://www.w3.org/2000/svg">
<g id="Vector">
<path d="M29.2383 192.073H0.831827V2.38601H55.2576L69.5802 137.195H71.9673L86.2898 2.38601H138.567V192.073H108.251L110.4 53.9236H108.012L89.3931 192.073H48.8124L29.9544 53.9236H27.5673L29.2383 192.073Z" fill="var(--fill-0, black)"/>
<path d="M186.242 107.847V166.543H224.197V192.073H152.823V2.38601H223.003V27.9162H186.242V82.5556H213.216V107.847H186.242Z" fill="var(--fill-0, black)"/>
<path d="M279.551 192.073H235.867V2.38601H279.551C307.003 2.38601 323.235 24.3372 323.235 61.7974V132.9C323.235 170.122 307.003 192.073 279.551 192.073ZM269.287 27.9162V166.543H279.551C286.235 166.543 289.816 161.771 289.816 152.943V41.755C289.816 32.6882 286.235 27.9162 279.551 27.9162H269.287Z" fill="var(--fill-0, black)"/>
<path d="M371.68 2.38601V166.543H406.293V192.073H338.261V2.38601H371.68Z" fill="var(--fill-0, black)"/>
<path d="M444.679 194.459C417.227 194.459 400.995 171.792 400.995 132.9V61.7974C400.995 22.9056 417.227 0 444.679 0C471.892 0 488.363 22.9056 488.363 61.7974V132.9C488.363 171.792 471.892 194.459 444.679 194.459ZM444.679 166.781C451.363 166.781 454.943 161.771 454.943 152.465V42.2322C454.943 32.6882 451.363 27.6776 444.679 27.6776C437.756 27.6776 434.414 32.6882 434.414 42.2322V152.465C434.414 161.771 437.756 166.781 444.679 166.781Z" fill="var(--fill-0, black)"/>
<path d="M542.814 194.459C515.601 194.459 499.369 171.553 499.369 132.9V61.7974C499.369 22.9056 515.601 0 542.814 0C569.311 0 586.26 21.2354 586.26 53.685V85.896L552.84 87.5662V42.2322C552.84 32.6882 549.498 27.6776 542.814 27.6776C536.369 27.6776 532.789 32.6882 532.789 42.2322V152.465C532.789 161.771 536.13 166.781 542.814 166.781C549.498 166.781 552.84 161.771 552.84 152.465V104.984L586.26 106.893V139.82C586.26 172.746 569.311 194.459 542.814 194.459Z" fill="var(--fill-0, black)"/>
<path d="M634.755 192.073H601.336V2.38601H634.755V82.7942H637.142L656.716 2.38601H691.09L667.219 93.7698L693 192.073H657.91L637.142 108.324H634.755V192.073Z" fill="var(--fill-0, black)"/>
<path d="M663.762 503.927H692.168V693.614H637.742L623.42 558.805H621.033L606.71 693.614H554.433V503.927H584.749L582.601 642.076H584.988L603.607 503.927H644.188L663.046 642.076H665.433L663.762 503.927Z" fill="var(--fill-0, black)"/>
<path d="M506.758 588.153V529.457H468.803V503.927H540.177V693.614H469.997V668.084H506.758V613.444H479.784V588.153H506.758Z" fill="var(--fill-0, black)"/>
<path d="M415.836 503.927H459.52V693.614H415.836C388.384 693.614 372.152 671.663 372.152 634.203V563.1C372.152 525.878 388.384 503.927 415.836 503.927ZM426.1 668.084V529.457H415.836C409.152 529.457 405.571 534.229 405.571 543.058V654.245C405.571 663.312 409.152 668.084 415.836 668.084H426.1Z" fill="var(--fill-0, black)"/>
<path d="M326.094 693.614V529.457H291.481V503.927H359.513V693.614H326.094Z" fill="var(--fill-0, black)"/>
<path d="M245.934 501.541C273.386 501.541 289.618 524.208 289.618 563.1V634.203C289.618 673.094 273.386 696 245.934 696C218.721 696 202.25 673.094 202.25 634.203V563.1C202.25 524.208 218.721 501.541 245.934 501.541ZM245.934 529.219C239.25 529.219 235.67 534.229 235.67 543.535V653.768C235.67 663.312 239.25 668.322 245.934 668.322C252.857 668.322 256.199 663.312 256.199 653.768V543.535C256.199 534.229 252.857 529.219 245.934 529.219Z" fill="var(--fill-0, black)"/>
<path d="M147.799 501.541C175.011 501.541 191.244 524.447 191.244 563.1V634.203C191.244 673.094 175.011 696 147.799 696C121.302 696 104.353 674.765 104.353 642.315V610.104L137.773 608.434V653.768C137.773 663.312 141.115 668.322 147.799 668.322C154.244 668.322 157.824 663.312 157.824 653.768V543.535C157.824 534.229 154.482 529.219 147.799 529.219C141.115 529.219 137.773 534.229 137.773 543.535V591.016L104.353 589.107V556.181C104.353 523.254 121.302 501.541 147.799 501.541Z" fill="var(--fill-0, black)"/>
<path d="M58.2451 503.927H91.6645V693.614H58.2451V613.206H55.858L36.2839 693.614H1.90968L25.7806 602.23L0 503.927H35.0903L55.858 587.676H58.2451V503.927Z" fill="var(--fill-0, black)"/>
<path d="M547.854 445.617C521.834 445.617 505.125 426.29 505.125 396.227V377.377L537.112 375.468V405.055C537.112 414.121 540.931 419.132 547.854 419.132C554.537 419.132 558.118 414.121 558.118 405.055V392.409C558.118 354.71 508.944 358.766 508.944 308.899V299.355C508.944 270.007 524.937 251.158 549.286 251.158C574.112 251.158 590.105 270.007 590.105 299.355V317.25L559.073 319.159V291.243C559.073 282.176 555.731 277.642 549.763 277.642C544.034 277.642 541.17 282.176 541.17 291.243V303.411C541.17 337.054 591.537 340.394 591.537 385.012V396.227C591.537 426.29 574.35 445.617 547.854 445.617Z" fill="var(--fill-0, black)"/>
<path d="M687.67 312.955V384.058C687.67 413.167 677.883 432.732 660.696 440.129V441.322C660.696 445.855 662.844 447.525 667.38 447.525H676.69V473.056H660.696C636.586 473.056 627.515 464.943 627.515 443.708V440.367C610.09 432.971 600.303 413.167 600.303 384.058V312.955C600.303 274.063 616.535 251.158 643.986 251.158C671.199 251.158 687.67 274.063 687.67 312.955ZM633.722 293.39V403.623C633.722 412.928 637.064 417.939 643.986 417.939C650.67 417.939 654.251 412.928 654.251 403.623V293.39C654.251 283.846 650.67 278.835 643.986 278.835C637.064 278.835 633.722 283.846 633.722 293.39Z" fill="var(--fill-0, black)"/>
<path d="M145.146 252.476C171.166 252.476 187.875 271.803 187.875 301.867V320.716L155.888 322.625V293.038C155.888 283.972 152.069 278.961 145.146 278.961C138.463 278.961 134.882 283.972 134.882 293.038V305.684C134.882 343.383 184.056 339.327 184.056 389.194V398.738C184.056 428.086 168.063 446.935 143.714 446.935C118.888 446.935 102.895 428.086 102.895 398.738V380.843L133.927 378.934V406.85C133.927 415.917 137.269 420.451 143.237 420.451C148.966 420.451 151.83 415.917 151.83 406.85V394.682C151.83 361.039 101.463 357.699 101.463 313.081V301.867C101.463 271.803 118.65 252.476 145.146 252.476Z" fill="var(--fill-0, black)"/>
<path d="M5.32975 385.138L5.32975 314.035C5.32976 284.926 15.1168 265.361 32.3039 257.964V256.771C32.3039 252.238 30.1556 250.568 25.6201 250.568H16.3104L16.3104 225.037L32.3039 225.037C56.4136 225.037 65.4846 233.15 65.4846 254.385V257.726C82.9104 265.122 92.6975 284.926 92.6975 314.035L92.6974 385.138C92.6974 424.03 76.4652 446.935 49.0136 446.935C21.8007 446.935 5.32974 424.03 5.32975 385.138ZM59.2781 404.703L59.2781 294.47C59.2781 285.165 55.9362 280.154 49.0136 280.154C42.3297 280.154 38.7491 285.165 38.7491 294.47L38.7491 404.703C38.7491 414.247 42.3297 419.258 49.0136 419.258C55.9362 419.258 59.2781 414.247 59.2781 404.703Z" fill="var(--fill-0, black)"/>
</g>
</svg>
